<svg xmlns="http://www.w3.org/2000/svg" version="1.1" xmlns:xlink="http://www.w3.org/1999/xlink" xmlns:svgjs="http://svgjs.dev/svgjs" width="128" height="128" viewBox="0 0 128 128"><g transform="matrix(0.8046875,0,0,0.8046875,12.760752631578946,12.760752631578946)"><svg viewBox="0 0 95 95" data-background-color="#fdffff" preserveAspectRatio="xMidYMid meet" height="128" width="128" xmlns="http://www.w3.org/2000/svg" xmlns:xlink="http://www.w3.org/1999/xlink"><g id="tight-bounds" transform="matrix(1,0,0,1,-0.24049999999999727,-0.24049999999999727)"><svg viewBox="0 0 95.481 95.481" height="95.481" width="95.481"><g><svg viewBox="0 0 95.481 95.481" height="95.481" width="95.481"><g><svg viewBox="0 0 95.481 95.481" height="95.481" width="95.481"><g><svg viewBox="0 0 95.481 95.481" height="95.481" width="95.481"><g><svg viewBox="0 0 95.481 95.481" height="95.481" width="95.481"><g><svg viewBox="0 0 95.481 95.481" height="95.481" width="95.481"><g><svg xmlns="http://www.w3.org/2000/svg" xmlns:xlink="http://www.w3.org/1999/xlink" version="1.1" x="0" y="0" viewBox="5 5 90 90" enable-background="new 0 0 100 100" xml:space="preserve" height="95.481" width="95.481" class="icon-icon-0" data-fill-palette-color="accent" id="icon-0"><g fill="#749fdc" data-fill-palette-color="accent"><path d="M50 7c23.7 0 43 19.3 43 43S73.7 93 50 93 7 73.7 7 50 26.3 7 50 7M50 5C25.2 5 5 25.1 5 50c0 24.9 20.2 45 45 45s45-20.1 45-45C95 25.1 74.8 5 50 5L50 5z" fill="#749fdc" data-fill-palette-color="accent"></path></g><g fill="#749fdc" data-fill-palette-color="accent"><g fill="#749fdc" data-fill-palette-color="accent"><path d="M61.7 40.7L58 52.9l-0.3 1H37c-0.1 0-0.1 0-0.1 0 0 0 0 0 0 0 0 0-0.2-0.3-0.5-1.1l-3.7-12.1H61.7M64.3 38.7H30l4.5 14.7c0.5 1.6 1.1 2.5 2.5 2.5h22.1l0.7-2.5 3.7-12.2L64.3 38.7 64.3 38.7z" fill="#749fdc" data-fill-palette-color="accent"></path></g></g><circle cx="38.4" cy="66.7" r="1.9" fill="#749fdc" data-fill-palette-color="accent"></circle><circle cx="54.4" cy="66.7" r="1.9" fill="#749fdc" data-fill-palette-color="accent"></circle><g fill="#749fdc" data-fill-palette-color="accent"><path d="M53 62.9H35v-2.5h18c1.9 0 2.4-0.5 2.7-1.6l0.5-1.6c1.1-3.3 3.3-10.3 4.5-14.5 1.4-5.1 3.4-11.3 3.4-11.3l0.3-0.9H70V33h-3.9c-0.6 1.9-2 6.5-3.1 10.4-1.2 4.2-3.4 11.2-4.5 14.6l-0.5 1.6C57.3 61.8 55.7 62.9 53 62.9L53 62.9z" fill="#749fdc" data-fill-palette-color="accent"></path></g></svg></g></svg></g></svg></g></svg></g></svg></g><g></g></svg></g><defs></defs></svg><rect width="95.481" height="95.481" fill="none" stroke="none" visibility="hidden"></rect></g></svg></g></svg>